<svg width="206" height="40" viewBox="0 0 206 40" fill="none" xmlns="http://www.w3.org/2000/svg">
<path d="M47.8994 31.4535C47.1458 31.4133 46.7057 31.6103 46.3058 32.3418C45.1523 34.4478 43.2433 35.545 40.874 35.561C32.9122 35.6153 24.9484 35.6133 16.9866 35.559C14.758 35.545 12.9876 34.496 11.794 32.5688C11.5548 32.181 11.3599 31.7771 11.2152 31.3651C10.7269 29.9946 10.745 28.5196 11.2192 27.1973C12.0552 24.8663 14.3079 23.0054 17.706 23.0175C25.2659 23.0436 32.8258 23.0195 40.3857 23.0255C43.0484 23.0275 45.1242 24.0745 46.4545 26.4558C46.6052 26.7271 46.9388 27.0627 47.2041 27.0788C48.3937 27.1451 49.5914 27.1069 50.8876 27.1069C50.757 26.6186 50.6846 26.2709 50.5721 25.9353C49.1915 21.8379 45.2508 18.9984 40.7052 18.9723C32.864 18.9281 25.0228 18.9462 17.1795 18.9703C14.6435 18.9783 12.3607 19.8103 10.4214 21.4561C9.54328 22.2016 8.81583 23.0717 8.25115 24.0263C8.06426 24.3418 7.89747 24.6673 7.74675 24.9989C7.47948 25.5877 7.26848 26.2006 7.11776 26.8296C6.73796 28.4091 6.73193 30.083 7.12982 31.7208C7.22226 32.0966 7.33479 32.4704 7.46943 32.8401C7.55785 33.0833 7.65431 33.3224 7.76082 33.5555C7.91153 33.8891 8.07832 34.2126 8.26119 34.5241C10.0497 37.5907 13.3313 39.5761 16.9766 39.5902C24.8982 39.6243 32.8198 39.6103 40.7414 39.5902C41.6176 39.5882 42.5098 39.4917 43.3638 39.3008C47.1056 38.4628 50.5339 34.8477 50.7911 31.4676C49.8245 31.4676 48.8599 31.5058 47.8994 31.4535Z" fill="#FEFAE0"/>
<path d="M6.33608 33.2523C6.19139 32.8564 6.07082 32.4565 5.96834 32.0546H5.96231C5.90604 32.0587 5.85178 32.0607 5.79551 32.0607C4.26224 32.0607 3.01431 30.8127 3.01431 29.2774C3.01431 27.7422 4.26224 26.4962 5.79551 26.4962C5.84374 26.4962 5.89398 26.4962 5.94221 26.5003H5.95427C6.12106 25.821 6.35216 25.1519 6.64756 24.5008C6.7822 24.2013 6.9309 23.91 7.08966 23.6266C6.79426 23.5603 6.49283 23.5161 6.18537 23.496C6.03264 23.4839 5.898 23.4819 5.79551 23.4819C2.60035 23.4819 0 26.0823 0 29.2774C0 32.4726 2.60035 35.075 5.79551 35.075C5.93015 35.075 6.06479 35.0689 6.19943 35.0589C6.50689 35.0368 6.81033 34.9926 7.10372 34.9263C6.94296 34.6429 6.79627 34.3495 6.66163 34.0501C6.54909 33.8049 6.43857 33.5357 6.33608 33.2523Z" fill="#FEFAE0"/>
<path d="M28.8731 10.4583L29.0579 10.7356C30.2335 12.492 31.4453 14.3046 30.8545 16.7341C31.3548 16.4568 31.8191 16.1614 32.1466 15.7575C33.499 14.0835 33.5051 12.1262 32.1627 9.93984C31.9376 9.5741 31.7085 9.21038 31.4794 8.84665C29.8376 6.22822 28.1396 3.52539 28.0029 0.125244C26.1783 1.68264 25.6056 3.94337 26.4777 6.21415C27.0584 7.73336 28.023 9.18224 28.8731 10.4583Z" fill="#FEFAE0"/>
<path d="M25.5413 12.3994L25.6819 12.5843C26.5722 13.7599 27.4885 14.9737 27.175 16.6898C27.5126 16.4768 27.8241 16.2517 28.0351 15.9583C28.9092 14.7385 28.8349 13.3761 27.812 11.9071C27.6412 11.6619 27.4664 11.4168 27.2916 11.1736C26.0436 9.41728 24.7515 7.60267 24.5204 5.24146C23.3127 6.39895 23.0052 7.99654 23.7045 9.54187C24.1708 10.5768 24.9002 11.5454 25.5433 12.4014L25.5413 12.3994Z" fill="#FEFAE0"/>
<path d="M185.223 19.0205V25.5535H185.221L185.223 19.0205Z" fill="#FEFAE0"/>
<path d="M109.542 22.9538C108.162 20.3755 105.917 18.9849 102.997 18.9487C97.4044 18.8804 91.8099 18.9246 86.2153 18.9287H85.4417V39.5445H89.5431V34.3197H91.0402C94.9769 34.3177 98.9156 34.3438 102.852 34.3036C105.627 34.2775 107.824 33.0497 109.303 30.7247C110.899 28.2167 110.941 25.5581 109.542 22.9538ZM103.286 30.2122C98.7629 30.3187 94.2334 30.2484 89.5692 30.2484V23.1145C89.7561 23.0603 89.9048 22.9799 90.0535 22.9799C94.3479 22.9718 98.6423 22.9417 102.937 22.9859C104.878 23.006 106.393 24.6257 106.447 26.5649C106.496 28.3494 105.089 30.172 103.286 30.2122Z" fill="#FEFAE0"/>
<path d="M185.223 19.0205H189.152V39.5038H185.197V37.4661C185.189 35.6696 185.187 33.873 185.201 32.0765C185.207 31.3792 185.071 30.9371 184.217 30.9391C178.509 30.9612 172.804 30.9572 167.097 30.9391C166.352 30.9391 166.119 31.2626 166.127 31.9599C166.149 34.0057 166.133 36.0534 166.133 38.0991V39.4817H162.168V19.0507H166.133C166.133 21.1928 166.131 23.3069 166.133 25.4189C166.135 27.0084 166.137 27.0165 167.706 27.0185C173.052 27.0225 178.397 26.9883 183.74 27.0426C184.908 27.0567 185.264 26.6929 185.221 25.5535V19.0205H185.223Z" fill="#FEFAE0"/>
<path d="M157.713 31.4676C157.456 34.8477 154.027 38.4628 150.286 39.3008C149.431 39.4917 148.539 39.5882 147.663 39.5902C139.741 39.6103 131.82 39.6243 123.898 39.5902C119.881 39.5741 116.308 37.1667 114.682 33.5555C114.576 33.3224 114.48 33.0833 114.391 32.8401C113.437 30.2177 113.575 27.4083 114.668 24.9989C115.273 23.6605 116.174 22.4468 117.343 21.4561C119.282 19.8103 121.565 18.9783 124.101 18.9703C131.944 18.9462 139.786 18.9281 147.627 18.9723C152.172 18.9984 156.113 21.8379 157.494 25.9353C157.606 26.2709 157.679 26.6186 157.809 27.1069C156.513 27.1069 155.315 27.1451 154.126 27.0788C153.86 27.0627 153.527 26.7271 153.376 26.4558C152.046 24.0745 149.97 23.0275 147.307 23.0255C139.747 23.0195 132.188 23.0436 124.628 23.0175C121.23 23.0054 118.977 24.8663 118.141 27.1973C117.667 28.5196 117.649 29.9946 118.137 31.3651C118.282 31.7771 118.477 32.181 118.716 32.5688C119.909 34.496 121.68 35.545 123.908 35.559C131.87 35.6133 139.834 35.6153 147.796 35.561C150.165 35.545 152.074 34.4478 153.227 32.3418C153.627 31.6103 154.067 31.4133 154.821 31.4535C155.782 31.5058 156.746 31.4676 157.713 31.4676Z" fill="#FEFAE0"/>
<path d="M79.4512 18.9082V31.5763C79.4512 36.8815 77.0036 39.5442 72.1144 39.5643H64.2711C59.3438 39.5643 56.8781 36.9016 56.8781 31.5763V18.9082H60.9795V31.6266C60.9795 34.5324 62.1029 35.9993 64.3515 36.0295H71.9777C74.2264 35.9993 75.3497 34.5324 75.3497 31.6266V18.9082H79.4512Z" fill="#FEFAE0"/>
<path d="M201.641 23.942C201.659 25.7144 201.661 27.4868 201.661 29.2612H201.663C201.667 30.8749 201.665 32.4885 201.637 34.1022C201.617 35.1592 201.844 35.6355 202.974 35.6355H205.972V39.54H193.374V35.6355H195.056C195.426 35.6355 195.866 35.6375 196.41 35.6355C197.158 35.6335 197.743 35.6094 197.733 34.5805C197.715 32.8081 197.713 31.0356 197.713 29.2612H197.711C197.707 27.6476 197.709 26.0339 197.737 24.4202C197.757 23.3632 197.53 22.887 196.4 22.887H193.402V18.9824H206V22.887H204.318C203.948 22.887 203.508 22.8849 202.964 22.887C202.216 22.889 201.631 22.9131 201.641 23.942Z" fill="#FEFAE0"/>
</svg>
