<svg width="266" height="51" viewBox="0 0 266 51" fill="none" xmlns="http://www.w3.org/2000/svg">
<path d="M61.8507 40.4536C60.8776 40.4017 60.3094 40.656 59.793 41.6006C58.3035 44.32 55.8384 45.7367 52.7791 45.7575C42.4983 45.8276 32.215 45.825 21.9342 45.7549C19.0565 45.7367 16.7705 44.3822 15.2291 41.8938C14.9204 41.393 14.6687 40.8714 14.4818 40.3395C13.8513 38.5698 13.8746 36.6652 14.487 34.9578C15.5665 31.9477 18.4753 29.5449 22.8632 29.5605C32.625 29.5942 42.3868 29.5631 52.1486 29.5709C55.5867 29.5735 58.2672 30.9254 59.985 34.0003C60.1796 34.3506 60.6104 34.7839 60.9529 34.8047C62.489 34.8903 64.0356 34.841 65.7092 34.841C65.5406 34.2105 65.4471 33.7615 65.3018 33.3282C63.5192 28.0373 58.4307 24.3708 52.5612 24.3371C42.4361 24.28 32.311 24.3033 22.1833 24.3345C18.9086 24.3449 15.9609 25.4191 13.4569 27.5443C12.3229 28.507 11.3836 29.6306 10.6544 30.8631C10.4131 31.2705 10.1977 31.6909 10.0031 32.119C9.65801 32.8793 9.38555 33.6707 9.19094 34.4829C8.70052 36.5225 8.69273 38.684 9.20651 40.7988C9.32587 41.284 9.47118 41.7666 9.64504 42.2441C9.75921 42.5581 9.88376 42.8668 10.0213 43.1679C10.2159 43.5986 10.4313 44.0164 10.6674 44.4186C12.9768 48.3783 17.2142 50.942 21.9212 50.9602C32.1501 51.0043 42.379 50.9861 52.6079 50.9602C53.7392 50.9576 54.8913 50.833 55.9941 50.5865C60.8257 49.5045 65.2525 44.8363 65.5847 40.4718C64.3366 40.4718 63.091 40.5211 61.8507 40.4536Z" fill="#253B39"/>
<path d="M8.18154 42.776C7.99471 42.2649 7.83902 41.7485 7.70669 41.2295H7.6989C7.62625 41.2347 7.55618 41.2373 7.48353 41.2373C5.50366 41.2373 3.89227 39.6259 3.89227 37.6434C3.89227 35.661 5.50366 34.0522 7.48353 34.0522C7.5458 34.0522 7.61068 34.0522 7.67295 34.0574H7.68852C7.90389 33.1803 8.2023 32.3162 8.58374 31.4755C8.7576 31.0889 8.94961 30.7126 9.15461 30.3467C8.77317 30.2611 8.38394 30.204 7.98693 30.1781C7.78972 30.1625 7.61587 30.1599 7.48353 30.1599C3.35773 30.1599 0 33.5176 0 37.6434C0 41.7692 3.35773 45.1296 7.48353 45.1296C7.65738 45.1296 7.83124 45.1218 8.00509 45.1088C8.4021 45.0803 8.79392 45.0232 9.17277 44.9375C8.96518 44.5717 8.77576 44.1928 8.60191 43.8062C8.4566 43.4896 8.31388 43.1419 8.18154 42.776Z" fill="#253B39"/>
<path d="M37.2827 13.3427L37.5215 13.7008C39.0394 15.9687 40.6041 18.3092 39.8412 21.4464C40.4874 21.0883 41.0868 20.7069 41.5097 20.1853C43.2561 18.0238 43.2639 15.4964 41.5305 12.6732C41.2399 12.201 40.9441 11.7313 40.6482 11.2616C38.5283 7.88054 36.3356 4.39048 36.1592 0C33.8031 2.011 33.0635 4.9302 34.1897 7.86238C34.9396 9.82408 36.1851 11.695 37.2827 13.3427Z" fill="#253B39"/>
<path d="M32.9805 15.8493L33.1621 16.088C34.3116 17.606 35.4949 19.1733 35.0901 21.3893C35.526 21.1142 35.9282 20.8236 36.2007 20.4447C37.3294 18.8697 37.2334 17.1104 35.9127 15.2135C35.6921 14.897 35.4663 14.5804 35.2406 14.2664C33.6292 11.9985 31.9607 9.65539 31.6623 6.60645C30.1028 8.10108 29.7058 10.164 30.6088 12.1594C31.2108 13.4958 32.1527 14.7465 32.9831 15.8519L32.9805 15.8493Z" fill="#253B39"/>
<path d="M239.172 24.3994V32.8353H239.169L239.172 24.3994Z" fill="#253B39"/>
<path d="M141.448 29.4775C139.665 26.1483 136.766 24.3527 132.996 24.306C125.775 24.2177 118.551 24.2748 111.327 24.28H110.328V50.9005H115.624V44.1539H117.557C122.64 44.1513 127.726 44.1851 132.809 44.1332C136.393 44.0994 139.229 42.514 141.139 39.5118C143.199 36.2734 143.254 32.8404 141.448 29.4775ZM133.37 38.8501C127.529 38.9876 121.68 38.8968 115.657 38.8968V29.6851C115.899 29.615 116.091 29.5112 116.283 29.5112C121.828 29.5008 127.373 29.4619 132.918 29.519C135.425 29.545 137.381 31.6364 137.451 34.1404C137.514 36.4446 135.697 38.7982 133.37 38.8501Z" fill="#253B39"/>
<path d="M239.172 24.3994H244.245V50.8487H239.138V48.2175C239.128 45.8977 239.125 43.5779 239.143 41.2581C239.151 40.3577 238.975 39.7868 237.872 39.7894C230.503 39.818 223.136 39.8128 215.766 39.7894C214.804 39.7894 214.503 40.2072 214.513 41.1076C214.542 43.7492 214.521 46.3933 214.521 49.0349V50.8201H209.401V24.4383H214.521C214.521 27.2044 214.518 29.9342 214.521 32.6614C214.523 34.7139 214.526 34.7243 216.553 34.7269C223.455 34.7321 230.357 34.688 237.257 34.758C238.765 34.7762 239.224 34.3065 239.169 32.8353V24.3994H239.172Z" fill="#253B39"/>
<path d="M203.649 40.4718C203.316 44.8363 198.89 49.5045 194.058 50.5865C192.955 50.833 191.803 50.9576 190.672 50.9602C180.443 50.9861 170.214 51.0043 159.985 50.9602C154.798 50.9394 150.184 47.8308 148.085 43.1679C147.948 42.8668 147.823 42.5581 147.709 42.2441C146.476 38.8578 146.655 35.2302 148.067 32.119C148.848 30.3908 150.011 28.8236 151.521 27.5443C154.025 25.4191 156.972 24.3449 160.247 24.3345C170.375 24.3033 180.5 24.28 190.625 24.3371C196.495 24.3708 201.583 28.0373 203.366 33.3282C203.511 33.7615 203.604 34.2105 203.773 34.841C202.099 34.841 200.553 34.8903 199.017 34.8047C198.674 34.7839 198.243 34.3506 198.049 34.0003C196.331 30.9254 193.651 29.5735 190.212 29.5709C180.451 29.5631 170.689 29.5942 160.927 29.5605C156.539 29.5449 153.63 31.9477 152.551 34.9578C151.938 36.6652 151.915 38.5698 152.546 40.3395C152.733 40.8714 152.984 41.393 153.293 41.8938C154.834 44.3822 157.12 45.7367 159.998 45.7549C170.279 45.825 180.562 45.8276 190.843 45.7575C193.902 45.7367 196.367 44.32 197.857 41.6006C198.373 40.656 198.941 40.4017 199.915 40.4536C201.155 40.5211 202.4 40.4718 203.649 40.4718Z" fill="#253B39"/>
<path d="M102.592 24.2539V40.6118C102.592 47.4622 99.4318 50.9004 93.1186 50.9263H82.9909C76.6283 50.9263 73.4445 47.4881 73.4445 40.6118V24.2539H78.7405V40.6767C78.7405 44.4288 80.1911 46.323 83.0947 46.362H92.9421C95.8457 46.323 97.2963 44.4288 97.2963 40.6767V24.2539H102.592Z" fill="#253B39"/>
<path d="M260.372 30.7539C260.395 33.0426 260.398 35.3312 260.398 37.6225H260.4C260.406 39.7061 260.403 41.7898 260.367 43.8735C260.341 45.2383 260.634 45.8533 262.092 45.8533H265.964V50.8951H249.697V45.8533H251.868C252.346 45.8533 252.914 45.8559 253.617 45.8533C254.583 45.8507 255.338 45.8196 255.325 44.491C255.301 42.2024 255.299 39.9137 255.299 37.6225H255.296C255.291 35.5388 255.294 33.4552 255.33 31.3715C255.356 30.0066 255.063 29.3916 253.604 29.3916H249.733V24.3499H266V29.3916H263.828C263.351 29.3916 262.782 29.389 262.079 29.3916C261.114 29.3942 260.359 29.4254 260.372 30.7539Z" fill="#253B39"/>
</svg>
